<svg width="28" height="28" viewBox="0 0 28 28" fill="none" xmlns="http://www.w3.org/2000/svg">
<g clip-path="url(#clip0_151_563)">
<path d="M0.875 0.875V27.125M0.875 2.625H14.875C15.3391 2.625 15.7842 2.80937 16.1124 3.13756C16.4406 3.46575 16.625 3.91087 16.625 4.375V18.375M16.625 18.375H0.875M16.625 18.375L11.375 23.625" stroke="#2CB9D3" stroke-width="1.5" stroke-linecap="round" stroke-linejoin="round"/>
<path d="M16.6243 7.875H26.2494C26.4184 7.87478 26.5838 7.92351 26.7257 8.0153C26.8676 8.10709 26.9799 8.23802 27.049 8.39226C27.1181 8.5465 27.1411 8.71745 27.1151 8.88445C27.0891 9.05145 27.0154 9.20736 26.9027 9.33333L22.236 14.5833C21.9537 14.9065 21.7982 15.321 21.7982 15.75C21.7982 16.179 21.9537 16.5935 22.236 16.9167L26.9027 22.1667C27.0154 22.2926 27.0891 22.4485 27.1151 22.6155C27.1411 22.7826 27.1181 22.9535 27.049 23.1077C26.9799 23.262 26.8676 23.3929 26.7257 23.4847C26.5838 23.5765 26.4184 23.6252 26.2494 23.625H9.91602C9.45189 23.625 9.00677 23.4406 8.67858 23.1124C8.35039 22.7842 8.16602 22.3391 8.16602 21.875V18.375" stroke="#2CB9D3" stroke-width="1.5" stroke-linecap="round" stroke-linejoin="round"/>
</g>
<defs>
<clipPath id="clip0_151_563">
<rect width="28" height="28" fill="white"/>
</clipPath>
</defs>
</svg>
